<?xml version="1.0" encoding="iso-8859-1"?>
<!-- Generator: Adobe Illustrator 19.0.0, SVG Export Plug-In . SVG Version: 6.00 Build 0)  -->
<svg version="1.1" id="Layer_1" xmlns="http://www.w3.org/2000/svg" xmlns:xlink="http://www.w3.org/1999/xlink" x="0px" y="0px"
	 viewBox="0 0 512 512" style="fill:#999;enable-background:new 0 0 512 512;" xml:space="preserve">
<g>
	<g>
		<path d="M0,47.628v416.744h512V47.628H0z M35.721,83.349h440.558v273.153c-73.01-5.701-112.386-46.293-153.87-89.115
			c-23.441-24.197-47.68-49.219-78.4-68.245c-35.248-21.831-74.169-32.444-118.985-32.444c-32.639,0-62.103,5.619-89.302,17.082
			V83.349z M476.28,428.651H35.721V223.289c26.734-14.191,55.377-20.871,89.302-20.871c84.713,0,126.982,43.631,171.731,89.823
			c23.44,24.197,47.68,49.219,78.4,68.245c30.481,18.879,63.717,29.351,101.126,31.843V428.651z"/>
	</g>
</g>
<g>
	<g>
		<path d="M375.07,130.977c-29.546,0-53.581,24.037-53.581,53.581c0,29.545,24.035,53.581,53.581,53.581
			s53.581-24.037,53.581-53.581C428.651,155.013,404.616,130.977,375.07,130.977z M375.07,202.419c-9.849,0-17.86-8.012-17.86-17.86
			c0-9.848,8.011-17.86,17.86-17.86c9.849,0,17.86,8.012,17.86,17.86C392.93,194.406,384.919,202.419,375.07,202.419z"/>
	</g>
</g>
<g>
</g>
<g>
</g>
<g>
</g>
<g>
</g>
<g>
</g>
<g>
</g>
<g>
</g>
<g>
</g>
<g>
</g>
<g>
</g>
<g>
</g>
<g>
</g>
<g>
</g>
<g>
</g>
<g>
</g>
</svg>
