<svg xmlns="http://www.w3.org/2000/svg" width="16.361" height="14.999" viewBox="0 0 16.361 14.999">
  <path id="Intersection_6" data-name="Intersection 6" d="M5,15a4.988,4.988,0,0,1-1.844-.351L4.4,11.971a2.15,2.15,0,0,0,.485.138,3,3,0,0,0,.7.083l.175.266.11.184.073.073c.046.046.1.12.165.184a2.664,2.664,0,0,0,3.067.487l.266-.138L8.624,15Zm2.766-2.643a1.337,1.337,0,0,1-.742-.376c-.056-.055-.083-.1-.111-.129l-.027-.028-.046-.064c-.092-.166-.183-.294-.256-.4l-.266-.413a.193.193,0,0,0-.082-.028,2.635,2.635,0,0,0-.4-.018,1.806,1.806,0,0,1-1.382-.413,1.814,1.814,0,0,1-.412-1.406A1.685,1.685,0,0,0,4,8.618c-.074-.055-.266-.175-.394-.266a3.618,3.618,0,0,1-.65-.45,1.339,1.339,0,0,1-.239-1.561l.431-.836.009-.046V5.441l-.44-.863a1.225,1.225,0,0,1-.128-.827,1.279,1.279,0,0,1,.366-.734,1.162,1.162,0,0,1,.229-.175l.806-.533.028-.027.009-.414a6.359,6.359,0,0,1,.064-.78A1.24,1.24,0,0,1,4.451.437,1.244,1.244,0,0,1,5.074.087,4.051,4.051,0,0,1,5.752.032L6.218,0H12.66a2.831,2.831,0,0,0,.416.014,1.887,1.887,0,0,1,1.391.423,1.867,1.867,0,0,1,.421,1.414,1.413,1.413,0,0,0,.036.459c.083.065.311.2.449.3a3.785,3.785,0,0,1,.586.4,1.426,1.426,0,0,1,.384.734,1.36,1.36,0,0,1-.128.827l-.449.872c-.009.009-.009.028,0,.055l.43.836A1.339,1.339,0,0,1,15.96,7.9a3.448,3.448,0,0,1-.549.386c-.156.1-.4.257-.5.33v.019l-.018.422a4.567,4.567,0,0,1-.073.79,1.24,1.24,0,0,1-.357.634,1.275,1.275,0,0,1-.65.358,6.737,6.737,0,0,1-.815.064l-.366.018a.047.047,0,0,0-.036.019l-.01.009-.549.863L12,11.851c-.027.028-.055.074-.11.129a1.273,1.273,0,0,1-.732.367,1.213,1.213,0,0,1-.824-.129l-.86-.441-.028.01-.86.44a1.341,1.341,0,0,1-.824.129ZM7.052,3.045a3.41,3.41,0,1,0,4.816,0,3.418,3.418,0,0,0-4.816,0ZM0,10V6.278l1.714-.8-.146.275a3.281,3.281,0,0,0-.257.789A2.7,2.7,0,0,0,1.3,7.36a2.537,2.537,0,0,0,.257.771,2.593,2.593,0,0,0,.485.689,4.1,4.1,0,0,0,.7.523,3.356,3.356,0,0,0,.073.7,2.257,2.257,0,0,0,.147.5L.323,11.771A4.989,4.989,0,0,1,0,10ZM7.967,6.956a2.114,2.114,0,1,1,2.985,0,2.106,2.106,0,0,1-2.985,0Z" fill="#d19e2c"/>
</svg>
