<svg xmlns="http://www.w3.org/2000/svg" width="14.06" height="13" viewBox="0 0 14.06 13">
  <path id="Intersection_2" data-name="Intersection 2" d="M5,13a4.982,4.982,0,0,1-2.2-.506l.973-2.119a1.778,1.778,0,0,0,.417.12,2.535,2.535,0,0,0,.606.072l.15.23.094.159.063.064c.04.04.087.1.142.159a2.276,2.276,0,0,0,2.635.421l.229-.119L7.412,13Zm1.673-2.29a1.143,1.143,0,0,1-.637-.327c-.047-.048-.071-.087-.095-.111l-.023-.024-.04-.056c-.078-.143-.157-.255-.22-.35l-.228-.358a.162.162,0,0,0-.071-.023,2.154,2.154,0,0,0-.346-.016,1.543,1.543,0,0,1-1.189-.358,1.579,1.579,0,0,1-.354-1.218,1.444,1.444,0,0,0-.032-.4c-.063-.048-.228-.151-.338-.231a3.116,3.116,0,0,1-.558-.39A1.169,1.169,0,0,1,2.338,5.5l.37-.724.008-.041V4.716l-.378-.748a1.063,1.063,0,0,1-.11-.716,1.11,1.11,0,0,1,.315-.637,1,1,0,0,1,.2-.151L3.432,2l.024-.023.007-.358A5.559,5.559,0,0,1,3.519.943,1.082,1.082,0,0,1,3.825.378a1.071,1.071,0,0,1,.536-.3A3.536,3.536,0,0,1,4.943.028L5.347,0h5.532a2.38,2.38,0,0,0,.358.012,1.614,1.614,0,0,1,1.2.366A1.629,1.629,0,0,1,12.794,1.6a1.231,1.231,0,0,0,.031.4c.071.056.268.175.386.263a3.356,3.356,0,0,1,.5.35,1.242,1.242,0,0,1,.33.637,1.186,1.186,0,0,1-.11.716l-.385.756c-.008.007-.008.023,0,.048l.369.724a1.168,1.168,0,0,1-.2,1.354,2.96,2.96,0,0,1-.472.334c-.134.088-.347.223-.425.287v.015l-.016.366a3.868,3.868,0,0,1-.063.685,1.071,1.071,0,0,1-.307.549,1.085,1.085,0,0,1-.558.311,5.784,5.784,0,0,1-.7.056l-.314.015a.04.04,0,0,0-.031.016l-.008.008-.472.748-.031.032c-.024.023-.048.063-.094.111a1.088,1.088,0,0,1-.63.319,1.029,1.029,0,0,1-.707-.112l-.74-.382-.023.008-.74.382a1.147,1.147,0,0,1-.708.112ZM6.06,2.639a2.989,2.989,0,0,0,0,4.186,2.9,2.9,0,0,0,4.138,0,2.987,2.987,0,0,0,0-4.186,2.919,2.919,0,0,0-4.138,0ZM0,8V5.441l1.473-.694-.126.239a2.874,2.874,0,0,0-.22.685,2.363,2.363,0,0,0-.008.708,2.239,2.239,0,0,0,.22.669,2.236,2.236,0,0,0,.417.6,3.54,3.54,0,0,0,.606.454,2.952,2.952,0,0,0,.063.6,1.981,1.981,0,0,0,.126.43l-2.084.979A4.98,4.98,0,0,1,0,8ZM6.846,6.029a1.851,1.851,0,0,1,0-2.595,1.814,1.814,0,0,1,2.565,0,1.85,1.85,0,0,1,0,2.595,1.8,1.8,0,0,1-2.565,0Z" fill="#ffd982"/>
</svg>
