<?xml version="1.0" encoding="iso-8859-1"?>
<!-- Generator: Adobe Illustrator 19.0.0, SVG Export Plug-In . SVG Version: 6.00 Build 0)  -->
<svg version="1.1" id="Capa_1" xmlns="http://www.w3.org/2000/svg" xmlns:xlink="http://www.w3.org/1999/xlink" x="0px" y="0px"
	 viewBox="0 0 478.027 478.027" style="fill:#999;enable-background:new 0 0 478.027 478.027;" xml:space="preserve">
<g>
	<path d="M239.014,289.027c-93.187,0-169,75.813-169,169v20h338v-20C408.014,364.84,332.2,289.027,239.014,289.027z
		 M259.014,438.027v-59h-40v59H111.562c8.618-55.151,52.303-98.826,107.452-107.446v28.446h40v-28.446
		c55.149,8.62,98.834,52.295,107.452,107.446H259.014z"/>
	<path d="M136.348,168.361c0,56.61,46.056,102.667,102.666,102.667S341.68,224.971,341.68,168.361c0-0.929-0.023-1.857-0.049-2.786
		h20.049v-40h-20v-2.909c0-49.768-35.597-91.373-82.666-100.705V0h-40v21.962c-47.069,9.332-82.666,50.937-82.666,100.705v2.909h-20
		v40h20.049C136.371,166.503,136.348,167.432,136.348,168.361z M301.68,168.361c0,34.554-28.112,62.667-62.666,62.667
		s-62.666-28.112-62.666-62.667c0-0.929,0.029-1.858,0.07-2.786H301.61C301.651,166.503,301.68,167.432,301.68,168.361z
		 M301.68,122.667v2.909h-42.666V63.292C283.787,71.66,301.68,95.105,301.68,122.667z M176.348,122.667
		c0-27.561,17.893-51.007,42.666-59.375v62.283h-42.666V122.667z"/>
</g>
<g>
</g>
<g>
</g>
<g>
</g>
<g>
</g>
<g>
</g>
<g>
</g>
<g>
</g>
<g>
</g>
<g>
</g>
<g>
</g>
<g>
</g>
<g>
</g>
<g>
</g>
<g>
</g>
<g>
</g>
</svg>
